<svg width="32" height="32" viewBox="0 0 32 32" fill="none" xmlns="http://www.w3.org/2000/svg">
  <path d="M9.33333 21.3333C9.86377 21.3333 10.3725 21.1226 10.7475 20.7475C11.1226 20.3725 11.3333 19.8638 11.3333 19.3333C11.3398 19.2668 11.3398 19.1998 11.3333 19.1333L15.0533 15.4133H15.36H15.6667L17.8133 17.56C17.8133 17.56 17.8133 17.6267 17.8133 17.6667C17.8133 18.1971 18.024 18.7058 18.3991 19.0809C18.7742 19.4559 19.2829 19.6667 19.8133 19.6667C20.3438 19.6667 20.8525 19.4559 21.2275 19.0809C21.6026 18.7058 21.8133 18.1971 21.8133 17.6667V17.56L26.6667 12.6667C27.0622 12.6667 27.4489 12.5494 27.7778 12.3296C28.1067 12.1098 28.363 11.7975 28.5144 11.432C28.6658 11.0666 28.7054 10.6644 28.6282 10.2765C28.5511 9.88851 28.3606 9.53215 28.0809 9.25244C27.8012 8.97274 27.4448 8.78226 27.0568 8.70509C26.6689 8.62792 26.2668 8.66752 25.9013 8.8189C25.5358 8.97027 25.2235 9.22662 25.0037 9.55552C24.784 9.88441 24.6667 10.2711 24.6667 10.6667C24.6602 10.7332 24.6602 10.8001 24.6667 10.8667L19.8533 15.68H19.64L17.3333 13.3333C17.3333 12.8029 17.1226 12.2942 16.7475 11.9191C16.3725 11.544 15.8638 11.3333 15.3333 11.3333C14.8029 11.3333 14.2942 11.544 13.9191 11.9191C13.544 12.2942 13.3333 12.8029 13.3333 13.3333L9.33333 17.3333C8.8029 17.3333 8.29419 17.544 7.91912 17.9191C7.54405 18.2942 7.33333 18.8029 7.33333 19.3333C7.33333 19.8638 7.54405 20.3725 7.91912 20.7475C8.29419 21.1226 8.8029 21.3333 9.33333 21.3333V21.3333ZM27.3333 26.6667H4.66667V3.99999C4.66667 3.64637 4.52619 3.30723 4.27614 3.05718C4.02609 2.80713 3.68696 2.66666 3.33333 2.66666C2.97971 2.66666 2.64057 2.80713 2.39052 3.05718C2.14048 3.30723 2 3.64637 2 3.99999V28C2 28.3536 2.14048 28.6928 2.39052 28.9428C2.64057 29.1928 2.97971 29.3333 3.33333 29.3333H27.3333C27.687 29.3333 28.0261 29.1928 28.2761 28.9428C28.5262 28.6928 28.6667 28.3536 28.6667 28C28.6667 27.6464 28.5262 27.3072 28.2761 27.0572C28.0261 26.8071 27.687 26.6667 27.3333 26.6667Z" fill="#0E6EDF" />
</svg>